<svg width="39" height="38" viewBox="0 0 39 38" fill="none" xmlns="http://www.w3.org/2000/svg">
<rect x="0.5" width="38" height="38" rx="1" fill="white"/>
<path fill-rule="evenodd" clip-rule="evenodd" d="M27.708 19.1944C27.708 18.5881 27.6536 18.0052 27.5525 17.4456H19.5V20.7529H24.1015C23.9032 21.8216 23.3009 22.7271 22.3953 23.3334V25.4787H25.1585C26.7753 23.9902 27.708 21.7983 27.708 19.1944Z" fill="#4285F4"/>
<path fill-rule="evenodd" clip-rule="evenodd" d="M19.5002 27.55C21.8087 27.55 23.7441 26.7844 25.1588 25.4786L22.3956 23.3333C21.6299 23.8463 20.6506 24.1494 19.5002 24.1494C17.2733 24.1494 15.3884 22.6454 14.7161 20.6245H11.8596V22.8397C13.2665 25.634 16.1579 27.55 19.5002 27.55Z" fill="#34A853"/>
<path fill-rule="evenodd" clip-rule="evenodd" d="M14.7161 20.6246C14.5451 20.1116 14.4479 19.5637 14.4479 19.0001C14.4479 18.4366 14.5451 17.8886 14.7161 17.3756V15.1604H11.8596C11.2805 16.3147 10.9502 17.6205 10.9502 19.0001C10.9502 20.3798 11.2805 21.6856 11.8596 22.8399L14.7161 20.6246Z" fill="#FBBC05"/>
<path fill-rule="evenodd" clip-rule="evenodd" d="M19.5002 13.8508C20.7555 13.8508 21.8826 14.2821 22.7686 15.1294L25.2209 12.6771C23.7402 11.2974 21.8048 10.4502 19.5002 10.4502C16.1579 10.4502 13.2665 12.3662 11.8596 15.1605L14.7161 17.3757C15.3884 15.3548 17.2733 13.8508 19.5002 13.8508Z" fill="#EA4335"/>
</svg>
