<svg width="219" height="142" viewBox="0 0 219 142" fill="none" xmlns="http://www.w3.org/2000/svg">
<circle cx="109.5" cy="45" r="45" fill="#3949AB"/>
<path d="M101.953 57.9375H117.047V54.5625H101.953V57.9375ZM101.953 48.375H117.047V45H101.953V48.375ZM97.3125 67.5C96.5625 67.5 95.9062 67.1625 95.3437 66.4875C94.7812 65.8125 94.5 65.025 94.5 64.125V25.875C94.5 24.975 94.7812 24.1875 95.3437 23.5125C95.9062 22.8375 96.5625 22.5 97.3125 22.5H114.234L124.5 34.8187V64.125C124.5 65.025 124.219 65.8125 123.656 66.4875C123.094 67.1625 122.438 67.5 121.688 67.5H97.3125ZM112.828 36.3375V25.875H97.3125V64.125H121.688V36.3375H112.828Z" fill="white"/>
<path d="M34.0195 126.27C34.0195 128.199 33.668 129.812 32.9648 131.109C32.2617 132.398 31.2422 133.371 29.9062 134.027C28.5781 134.676 26.9648 135 25.0664 135H20.4141V117.867H25.582C27.3242 117.867 28.8242 118.188 30.082 118.828C31.3398 119.461 32.3086 120.402 32.9883 121.652C33.6758 122.895 34.0195 124.434 34.0195 126.27ZM31.9219 126.34C31.9219 124.801 31.6641 123.531 31.1484 122.531C30.6406 121.531 29.8906 120.789 28.8984 120.305C27.9141 119.812 26.707 119.566 25.2773 119.566H22.4062V133.289H24.832C27.1914 133.289 28.9609 132.707 30.1406 131.543C31.3281 130.379 31.9219 128.645 31.9219 126.34ZM42.3398 121.945C43.8711 121.945 45.0078 122.289 45.75 122.977C46.4922 123.664 46.8633 124.762 46.8633 126.27V135H45.4453L45.0703 133.102H44.9766C44.6172 133.57 44.2422 133.965 43.8516 134.285C43.4609 134.598 43.0078 134.836 42.4922 135C41.9844 135.156 41.3594 135.234 40.6172 135.234C39.8359 135.234 39.1406 135.098 38.5312 134.824C37.9297 134.551 37.4531 134.137 37.1016 133.582C36.7578 133.027 36.5859 132.324 36.5859 131.473C36.5859 130.191 37.0938 129.207 38.1094 128.52C39.125 127.832 40.6719 127.457 42.75 127.395L44.9648 127.301V126.516C44.9648 125.406 44.7266 124.629 44.25 124.184C43.7734 123.738 43.1016 123.516 42.2344 123.516C41.5625 123.516 40.9219 123.613 40.3125 123.809C39.7031 124.004 39.125 124.234 38.5781 124.5L37.9805 123.023C38.5586 122.727 39.2227 122.473 39.9727 122.262C40.7227 122.051 41.5117 121.945 42.3398 121.945ZM44.9414 128.672L42.9844 128.754C41.3828 128.816 40.2539 129.078 39.5977 129.539C38.9414 130 38.6133 130.652 38.6133 131.496C38.6133 132.23 38.8359 132.773 39.2812 133.125C39.7266 133.477 40.3164 133.652 41.0508 133.652C42.1914 133.652 43.125 133.336 43.8516 132.703C44.5781 132.07 44.9414 131.121 44.9414 129.855V128.672ZM55.0195 133.641C55.3398 133.641 55.668 133.613 56.0039 133.559C56.3398 133.504 56.6133 133.438 56.8242 133.359V134.871C56.5977 134.973 56.2812 135.059 55.875 135.129C55.4766 135.199 55.0859 135.234 54.7031 135.234C54.0234 135.234 53.4062 135.117 52.8516 134.883C52.2969 134.641 51.8516 134.234 51.5156 133.664C51.1875 133.094 51.0234 132.305 51.0234 131.297V123.68H49.1953V122.73L51.0352 121.969L51.8086 119.18H52.9805V122.156H56.7422V123.68H52.9805V131.238C52.9805 132.043 53.1641 132.645 53.5312 133.043C53.9062 133.441 54.4023 133.641 55.0195 133.641ZM64.2305 121.945C65.7617 121.945 66.8984 122.289 67.6406 122.977C68.3828 123.664 68.7539 124.762 68.7539 126.27V135H67.3359L66.9609 133.102H66.8672C66.5078 133.57 66.1328 133.965 65.7422 134.285C65.3516 134.598 64.8984 134.836 64.3828 135C63.875 135.156 63.25 135.234 62.5078 135.234C61.7266 135.234 61.0312 135.098 60.4219 134.824C59.8203 134.551 59.3438 134.137 58.9922 133.582C58.6484 133.027 58.4766 132.324 58.4766 131.473C58.4766 130.191 58.9844 129.207 60 128.52C61.0156 127.832 62.5625 127.457 64.6406 127.395L66.8555 127.301V126.516C66.8555 125.406 66.6172 124.629 66.1406 124.184C65.6641 123.738 64.9922 123.516 64.125 123.516C63.4531 123.516 62.8125 123.613 62.2031 123.809C61.5938 124.004 61.0156 124.234 60.4688 124.5L59.8711 123.023C60.4492 122.727 61.1133 122.473 61.8633 122.262C62.6133 122.051 63.4023 121.945 64.2305 121.945ZM66.832 128.672L64.875 128.754C63.2734 128.816 62.1445 129.078 61.4883 129.539C60.832 130 60.5039 130.652 60.5039 131.496C60.5039 132.23 60.7266 132.773 61.1719 133.125C61.6172 133.477 62.207 133.652 62.9414 133.652C64.082 133.652 65.0156 133.336 65.7422 132.703C66.4688 132.07 66.832 131.121 66.832 129.855V128.672ZM81.8203 135L76.9453 122.156H79.0312L81.8555 129.926C82.0508 130.457 82.25 131.043 82.4531 131.684C82.6562 132.324 82.7969 132.84 82.875 133.23H82.957C83.0508 132.84 83.207 132.324 83.4258 131.684C83.6445 131.035 83.8438 130.449 84.0234 129.926L86.8477 122.156H88.9336L84.0469 135H81.8203ZM95.8008 121.945C97.332 121.945 98.4688 122.289 99.2109 122.977C99.9531 123.664 100.324 124.762 100.324 126.27V135H98.9062L98.5312 133.102H98.4375C98.0781 133.57 97.7031 133.965 97.3125 134.285C96.9219 134.598 96.4688 134.836 95.9531 135C95.4453 135.156 94.8203 135.234 94.0781 135.234C93.2969 135.234 92.6016 135.098 91.9922 134.824C91.3906 134.551 90.9141 134.137 90.5625 133.582C90.2188 133.027 90.0469 132.324 90.0469 131.473C90.0469 130.191 90.5547 129.207 91.5703 128.52C92.5859 127.832 94.1328 127.457 96.2109 127.395L98.4258 127.301V126.516C98.4258 125.406 98.1875 124.629 97.7109 124.184C97.2344 123.738 96.5625 123.516 95.6953 123.516C95.0234 123.516 94.3828 123.613 93.7734 123.809C93.1641 124.004 92.5859 124.234 92.0391 124.5L91.4414 123.023C92.0195 122.727 92.6836 122.473 93.4336 122.262C94.1836 122.051 94.9727 121.945 95.8008 121.945ZM98.4023 128.672L96.4453 128.754C94.8438 128.816 93.7148 129.078 93.0586 129.539C92.4023 130 92.0742 130.652 92.0742 131.496C92.0742 132.23 92.2969 132.773 92.7422 133.125C93.1875 133.477 93.7773 133.652 94.5117 133.652C95.6523 133.652 96.5859 133.336 97.3125 132.703C98.0391 132.07 98.4023 131.121 98.4023 129.855V128.672ZM110.168 121.922C110.426 121.922 110.695 121.938 110.977 121.969C111.258 121.992 111.508 122.027 111.727 122.074L111.48 123.879C111.27 123.824 111.035 123.781 110.777 123.75C110.52 123.719 110.277 123.703 110.051 123.703C109.535 123.703 109.047 123.809 108.586 124.02C108.133 124.223 107.734 124.52 107.391 124.91C107.047 125.293 106.777 125.758 106.582 126.305C106.387 126.844 106.289 127.445 106.289 128.109V135H104.332V122.156H105.949L106.16 124.523H106.242C106.508 124.047 106.828 123.613 107.203 123.223C107.578 122.824 108.012 122.508 108.504 122.273C109.004 122.039 109.559 121.922 110.168 121.922ZM116.098 122.156V135H114.152V122.156H116.098ZM115.148 117.352C115.469 117.352 115.742 117.457 115.969 117.668C116.203 117.871 116.32 118.191 116.32 118.629C116.32 119.059 116.203 119.379 115.969 119.59C115.742 119.801 115.469 119.906 115.148 119.906C114.812 119.906 114.531 119.801 114.305 119.59C114.086 119.379 113.977 119.059 113.977 118.629C113.977 118.191 114.086 117.871 114.305 117.668C114.531 117.457 114.812 117.352 115.148 117.352ZM125.941 123.68H122.742V135H120.797V123.68H118.523V122.742L120.797 122.098V121.242C120.797 120.164 120.957 119.289 121.277 118.617C121.598 117.938 122.062 117.438 122.672 117.117C123.281 116.797 124.023 116.637 124.898 116.637C125.391 116.637 125.84 116.68 126.246 116.766C126.66 116.852 127.023 116.949 127.336 117.059L126.832 118.594C126.566 118.508 126.266 118.43 125.93 118.359C125.602 118.281 125.266 118.242 124.922 118.242C124.18 118.242 123.629 118.484 123.27 118.969C122.918 119.445 122.742 120.195 122.742 121.219V122.156H125.941V123.68ZM130.242 122.156V135H128.297V122.156H130.242ZM129.293 117.352C129.613 117.352 129.887 117.457 130.113 117.668C130.348 117.871 130.465 118.191 130.465 118.629C130.465 119.059 130.348 119.379 130.113 119.59C129.887 119.801 129.613 119.906 129.293 119.906C128.957 119.906 128.676 119.801 128.449 119.59C128.23 119.379 128.121 119.059 128.121 118.629C128.121 118.191 128.23 117.871 128.449 117.668C128.676 117.457 128.957 117.352 129.293 117.352ZM139.5 135.234C138.344 135.234 137.324 134.996 136.441 134.52C135.559 134.043 134.871 133.316 134.379 132.34C133.887 131.363 133.641 130.133 133.641 128.648C133.641 127.094 133.898 125.824 134.414 124.84C134.938 123.848 135.656 123.113 136.57 122.637C137.484 122.16 138.523 121.922 139.688 121.922C140.328 121.922 140.945 121.988 141.539 122.121C142.141 122.246 142.633 122.406 143.016 122.602L142.43 124.23C142.039 124.074 141.586 123.934 141.07 123.809C140.562 123.684 140.086 123.621 139.641 123.621C138.75 123.621 138.008 123.812 137.414 124.195C136.828 124.578 136.387 125.141 136.09 125.883C135.801 126.625 135.656 127.539 135.656 128.625C135.656 129.664 135.797 130.551 136.078 131.285C136.367 132.02 136.793 132.582 137.355 132.973C137.926 133.355 138.637 133.547 139.488 133.547C140.168 133.547 140.781 133.477 141.328 133.336C141.875 133.188 142.371 133.016 142.816 132.82V134.555C142.387 134.773 141.906 134.941 141.375 135.059C140.852 135.176 140.227 135.234 139.5 135.234ZM150.668 121.945C152.199 121.945 153.336 122.289 154.078 122.977C154.82 123.664 155.191 124.762 155.191 126.27V135H153.773L153.398 133.102H153.305C152.945 133.57 152.57 133.965 152.18 134.285C151.789 134.598 151.336 134.836 150.82 135C150.312 135.156 149.688 135.234 148.945 135.234C148.164 135.234 147.469 135.098 146.859 134.824C146.258 134.551 145.781 134.137 145.43 133.582C145.086 133.027 144.914 132.324 144.914 131.473C144.914 130.191 145.422 129.207 146.438 128.52C147.453 127.832 149 127.457 151.078 127.395L153.293 127.301V126.516C153.293 125.406 153.055 124.629 152.578 124.184C152.102 123.738 151.43 123.516 150.562 123.516C149.891 123.516 149.25 123.613 148.641 123.809C148.031 124.004 147.453 124.234 146.906 124.5L146.309 123.023C146.887 122.727 147.551 122.473 148.301 122.262C149.051 122.051 149.84 121.945 150.668 121.945ZM153.27 128.672L151.312 128.754C149.711 128.816 148.582 129.078 147.926 129.539C147.27 130 146.941 130.652 146.941 131.496C146.941 132.23 147.164 132.773 147.609 133.125C148.055 133.477 148.645 133.652 149.379 133.652C150.52 133.652 151.453 133.336 152.18 132.703C152.906 132.07 153.27 131.121 153.27 129.855V128.672ZM163.348 133.641C163.668 133.641 163.996 133.613 164.332 133.559C164.668 133.504 164.941 133.438 165.152 133.359V134.871C164.926 134.973 164.609 135.059 164.203 135.129C163.805 135.199 163.414 135.234 163.031 135.234C162.352 135.234 161.734 135.117 161.18 134.883C160.625 134.641 160.18 134.234 159.844 133.664C159.516 133.094 159.352 132.305 159.352 131.297V123.68H157.523V122.73L159.363 121.969L160.137 119.18H161.309V122.156H165.07V123.68H161.309V131.238C161.309 132.043 161.492 132.645 161.859 133.043C162.234 133.441 162.73 133.641 163.348 133.641ZM169.699 122.156V135H167.754V122.156H169.699ZM168.75 117.352C169.07 117.352 169.344 117.457 169.57 117.668C169.805 117.871 169.922 118.191 169.922 118.629C169.922 119.059 169.805 119.379 169.57 119.59C169.344 119.801 169.07 119.906 168.75 119.906C168.414 119.906 168.133 119.801 167.906 119.59C167.688 119.379 167.578 119.059 167.578 118.629C167.578 118.191 167.688 117.871 167.906 117.668C168.133 117.457 168.414 117.352 168.75 117.352ZM184.898 128.555C184.898 129.609 184.762 130.551 184.488 131.379C184.215 132.207 183.82 132.906 183.305 133.477C182.789 134.047 182.164 134.484 181.43 134.789C180.703 135.086 179.879 135.234 178.957 135.234C178.098 135.234 177.309 135.086 176.59 134.789C175.879 134.484 175.262 134.047 174.738 133.477C174.223 132.906 173.82 132.207 173.531 131.379C173.25 130.551 173.109 129.609 173.109 128.555C173.109 127.148 173.348 125.953 173.824 124.969C174.301 123.977 174.98 123.223 175.863 122.707C176.754 122.184 177.812 121.922 179.039 121.922C180.211 121.922 181.234 122.184 182.109 122.707C182.992 123.23 183.676 123.988 184.16 124.98C184.652 125.965 184.898 127.156 184.898 128.555ZM175.125 128.555C175.125 129.586 175.262 130.48 175.535 131.238C175.809 131.996 176.23 132.582 176.801 132.996C177.371 133.41 178.105 133.617 179.004 133.617C179.895 133.617 180.625 133.41 181.195 132.996C181.773 132.582 182.199 131.996 182.473 131.238C182.746 130.48 182.883 129.586 182.883 128.555C182.883 127.531 182.746 126.648 182.473 125.906C182.199 125.156 181.777 124.578 181.207 124.172C180.637 123.766 179.898 123.562 178.992 123.562C177.656 123.562 176.676 124.004 176.051 124.887C175.434 125.77 175.125 126.992 175.125 128.555ZM194.344 121.922C195.867 121.922 197.02 122.297 197.801 123.047C198.582 123.789 198.973 124.984 198.973 126.633V135H197.051V126.762C197.051 125.691 196.805 124.891 196.312 124.359C195.828 123.828 195.082 123.562 194.074 123.562C192.652 123.562 191.652 123.965 191.074 124.77C190.496 125.574 190.207 126.742 190.207 128.273V135H188.262V122.156H189.832L190.125 124.008H190.23C190.504 123.555 190.852 123.176 191.273 122.871C191.695 122.559 192.168 122.324 192.691 122.168C193.215 122.004 193.766 121.922 194.344 121.922Z" fill="#3949AB"/>
</svg>
